<svg xmlns="http://www.w3.org/2000/svg" width="692" height="284" viewBox="0 0 692 284" role="img" aria-labelledby="activity-title activity-description">
  <title id="activity-title">Codex Token Activity - last six months</title>
  <desc id="activity-description">Activity from Mar 22, 2026 - Sep 21, 2026 (JST). Each square represents one day; darker green means more activity in light mode, brighter green in dark mode.</desc>
  <style>
    text { font-family: -apple-system, BlinkMacSystemFont, "Segoe UI", Arial, sans-serif; }
    .summary { fill: #f0f6fc; font-size: 16px; font-weight: 600; }
    .label, .footer { fill: #9198a1; font-size: 12px; }
    .day { stroke: #f0f6fc; stroke-opacity: 0.06; stroke-width: 1; }
  </style>
  <rect x="0.5" y="0.5" width="691" height="283" rx="6" fill="#0d1117" stroke="#3d444d"/>
  <text x="24" y="34" class="summary">Token activity over the last six months</text>
  <text x="52" y="67" class="label">Mar</text>
  <text x="167" y="67" class="label">May</text>
  <text x="282" y="67" class="label">Jun</text>
  <text x="374" y="67" class="label">Jul</text>
  <text x="466" y="67" class="label">Aug</text>
  <text x="581" y="67" class="label">Sep</text>
  <text x="20" y="116" class="label">Mon</text>
  <text x="20" y="162" class="label">Wed</text>
  <text x="20" y="208" class="label">Fri</text>
  <rect class="day" data-date="2026-03-22" x="52" y="80" width="18" height="18" rx="3" fill="#151b23"><title>2026-03-22: No activity</title></rect>
  <rect class="day" data-date="2026-03-23" x="52" y="103" width="18" height="18" rx="3" fill="#151b23"><title>2026-03-23: No activity</title></rect>
  <rect class="day" data-date="2026-03-24" x="52" y="126" width="18" height="18" rx="3" fill="#151b23"><title>2026-03-24: No activity</title></rect>
  <rect class="day" data-date="2026-03-25" x="52" y="149" width="18" height="18" rx="3" fill="#151b23"><title>2026-03-25: No activity</title></rect>
  <rect class="day" data-date="2026-03-26" x="52" y="172" width="18" height="18" rx="3" fill="#151b23"><title>2026-03-26: No activity</title></rect>
  <rect class="day" data-date="2026-03-27" x="52" y="195" width="18" height="18" rx="3" fill="#151b23"><title>2026-03-27: No activity</title></rect>
  <rect class="day" data-date="2026-03-28" x="52" y="218" width="18" height="18" rx="3" fill="#151b23"><title>2026-03-28: No activity</title></rect>
  <rect class="day" data-date="2026-03-29" x="75" y="80" width="18" height="18" rx="3" fill="#151b23"><title>2026-03-29: No activity</title></rect>
  <rect class="day" data-date="2026-03-30" x="75" y="103" width="18" height="18" rx="3" fill="#151b23"><title>2026-03-30: No activity</title></rect>
  <rect class="day" data-date="2026-03-31" x="75" y="126" width="18" height="18" rx="3" fill="#151b23"><title>2026-03-31: No activity</title></rect>
  <rect class="day" data-date="2026-04-01" x="75" y="149" width="18" height="18" rx="3" fill="#151b23"><title>2026-04-01: No activity</title></rect>
  <rect class="day" data-date="2026-04-02" x="75" y="172" width="18" height="18" rx="3" fill="#151b23"><title>2026-04-02: No activity</title></rect>
  <rect class="day" data-date="2026-04-03" x="75" y="195" width="18" height="18" rx="3" fill="#151b23"><title>2026-04-03: No activity</title></rect>
  <rect class="day" data-date="2026-04-04" x="75" y="218" width="18" height="18" rx="3" fill="#151b23"><title>2026-04-04: No activity</title></rect>
  <rect class="day" data-date="2026-04-05" x="98" y="80" width="18" height="18" rx="3" fill="#151b23"><title>2026-04-05: No activity</title></rect>
  <rect class="day" data-date="2026-04-06" x="98" y="103" width="18" height="18" rx="3" fill="#151b23"><title>2026-04-06: No activity</title></rect>
  <rect class="day" data-date="2026-04-07" x="98" y="126" width="18" height="18" rx="3" fill="#151b23"><title>2026-04-07: No activity</title></rect>
  <rect class="day" data-date="2026-04-08" x="98" y="149" width="18" height="18" rx="3" fill="#151b23"><title>2026-04-08: No activity</title></rect>
  <rect class="day" data-date="2026-04-09" x="98" y="172" width="18" height="18" rx="3" fill="#151b23"><title>2026-04-09: No activity</title></rect>
  <rect class="day" data-date="2026-04-10" x="98" y="195" width="18" height="18" rx="3" fill="#151b23"><title>2026-04-10: No activity</title></rect>
  <rect class="day" data-date="2026-04-11" x="98" y="218" width="18" height="18" rx="3" fill="#151b23"><title>2026-04-11: No activity</title></rect>
  <rect class="day" data-date="2026-04-12" x="121" y="80" width="18" height="18" rx="3" fill="#151b23"><title>2026-04-12: No activity</title></rect>
  <rect class="day" data-date="2026-04-13" x="121" y="103" width="18" height="18" rx="3" fill="#151b23"><title>2026-04-13: No activity</title></rect>
  <rect class="day" data-date="2026-04-14" x="121" y="126" width="18" height="18" rx="3" fill="#151b23"><title>2026-04-14: No activity</title></rect>
  <rect class="day" data-date="2026-04-15" x="121" y="149" width="18" height="18" rx="3" fill="#151b23"><title>2026-04-15: No activity</title></rect>
  <rect class="day" data-date="2026-04-16" x="121" y="172" width="18" height="18" rx="3" fill="#151b23"><title>2026-04-16: No activity</title></rect>
  <rect class="day" data-date="2026-04-17" x="121" y="195" width="18" height="18" rx="3" fill="#151b23"><title>2026-04-17: No activity</title></rect>
  <rect class="day" data-date="2026-04-18" x="121" y="218" width="18" height="18" rx="3" fill="#151b23"><title>2026-04-18: No activity</title></rect>
  <rect class="day" data-date="2026-04-19" x="144" y="80" width="18" height="18" rx="3" fill="#151b23"><title>2026-04-19: No activity</title></rect>
  <rect class="day" data-date="2026-04-20" x="144" y="103" width="18" height="18" rx="3" fill="#151b23"><title>2026-04-20: No activity</title></rect>
  <rect class="day" data-date="2026-04-21" x="144" y="126" width="18" height="18" rx="3" fill="#151b23"><title>2026-04-21: No activity</title></rect>
  <rect class="day" data-date="2026-04-22" x="144" y="149" width="18" height="18" rx="3" fill="#151b23"><title>2026-04-22: No activity</title></rect>
  <rect class="day" data-date="2026-04-23" x="144" y="172" width="18" height="18" rx="3" fill="#151b23"><title>2026-04-23: No activity</title></rect>
  <rect class="day" data-date="2026-04-24" x="144" y="195" width="18" height="18" rx="3" fill="#151b23"><title>2026-04-24: No activity</title></rect>
  <rect class="day" data-date="2026-04-25" x="144" y="218" width="18" height="18" rx="3" fill="#151b23"><title>2026-04-25: No activity</title></rect>
  <rect class="day" data-date="2026-04-26" x="167" y="80" width="18" height="18" rx="3" fill="#151b23"><title>2026-04-26: No activity</title></rect>
  <rect class="day" data-date="2026-04-27" x="167" y="103" width="18" height="18" rx="3" fill="#151b23"><title>2026-04-27: No activity</title></rect>
  <rect class="day" data-date="2026-04-28" x="167" y="126" width="18" height="18" rx="3" fill="#151b23"><title>2026-04-28: No activity</title></rect>
  <rect class="day" data-date="2026-04-29" x="167" y="149" width="18" height="18" rx="3" fill="#151b23"><title>2026-04-29: No activity</title></rect>
  <rect class="day" data-date="2026-04-30" x="167" y="172" width="18" height="18" rx="3" fill="#151b23"><title>2026-04-30: No activity</title></rect>
  <rect class="day" data-date="2026-05-01" x="167" y="195" width="18" height="18" rx="3" fill="#151b23"><title>2026-05-01: No activity</title></rect>
  <rect class="day" data-date="2026-05-02" x="167" y="218" width="18" height="18" rx="3" fill="#151b23"><title>2026-05-02: No activity</title></rect>
  <rect class="day" data-date="2026-05-03" x="190" y="80" width="18" height="18" rx="3" fill="#151b23"><title>2026-05-03: No activity</title></rect>
  <rect class="day" data-date="2026-05-04" x="190" y="103" width="18" height="18" rx="3" fill="#151b23"><title>2026-05-04: No activity</title></rect>
  <rect class="day" data-date="2026-05-05" x="190" y="126" width="18" height="18" rx="3" fill="#151b23"><title>2026-05-05: No activity</title></rect>
  <rect class="day" data-date="2026-05-06" x="190" y="149" width="18" height="18" rx="3" fill="#151b23"><title>2026-05-06: No activity</title></rect>
  <rect class="day" data-date="2026-05-07" x="190" y="172" width="18" height="18" rx="3" fill="#151b23"><title>2026-05-07: No activity</title></rect>
  <rect class="day" data-date="2026-05-08" x="190" y="195" width="18" height="18" rx="3" fill="#151b23"><title>2026-05-08: No activity</title></rect>
  <rect class="day" data-date="2026-05-09" x="190" y="218" width="18" height="18" rx="3" fill="#151b23"><title>2026-05-09: No activity</title></rect>
  <rect class="day" data-date="2026-05-10" x="213" y="80" width="18" height="18" rx="3" fill="#151b23"><title>2026-05-10: No activity</title></rect>
  <rect class="day" data-date="2026-05-11" x="213" y="103" width="18" height="18" rx="3" fill="#151b23"><title>2026-05-11: No activity</title></rect>
  <rect class="day" data-date="2026-05-12" x="213" y="126" width="18" height="18" rx="3" fill="#033a16"><title>2026-05-12: Low activity</title></rect>
  <rect class="day" data-date="2026-05-13" x="213" y="149" width="18" height="18" rx="3" fill="#151b23"><title>2026-05-13: No activity</title></rect>
  <rect class="day" data-date="2026-05-14" x="213" y="172" width="18" height="18" rx="3" fill="#033a16"><title>2026-05-14: Low activity</title></rect>
  <rect class="day" data-date="2026-05-15" x="213" y="195" width="18" height="18" rx="3" fill="#151b23"><title>2026-05-15: No activity</title></rect>
  <rect class="day" data-date="2026-05-16" x="213" y="218" width="18" height="18" rx="3" fill="#151b23"><title>2026-05-16: No activity</title></rect>
  <rect class="day" data-date="2026-05-17" x="236" y="80" width="18" height="18" rx="3" fill="#151b23"><title>2026-05-17: No activity</title></rect>
  <rect class="day" data-date="2026-05-18" x="236" y="103" width="18" height="18" rx="3" fill="#151b23"><title>2026-05-18: No activity</title></rect>
  <rect class="day" data-date="2026-05-19" x="236" y="126" width="18" height="18" rx="3" fill="#033a16"><title>2026-05-19: Low activity</title></rect>
  <rect class="day" data-date="2026-05-20" x="236" y="149" width="18" height="18" rx="3" fill="#033a16"><title>2026-05-20: Low activity</title></rect>
  <rect class="day" data-date="2026-05-21" x="236" y="172" width="18" height="18" rx="3" fill="#2ea043"><title>2026-05-21: High activity</title></rect>
  <rect class="day" data-date="2026-05-22" x="236" y="195" width="18" height="18" rx="3" fill="#151b23"><title>2026-05-22: No activity</title></rect>
  <rect class="day" data-date="2026-05-23" x="236" y="218" width="18" height="18" rx="3" fill="#151b23"><title>2026-05-23: No activity</title></rect>
  <rect class="day" data-date="2026-05-24" x="259" y="80" width="18" height="18" rx="3" fill="#151b23"><title>2026-05-24: No activity</title></rect>
  <rect class="day" data-date="2026-05-25" x="259" y="103" width="18" height="18" rx="3" fill="#196c2e"><title>2026-05-25: Moderate activity</title></rect>
  <rect class="day" data-date="2026-05-26" x="259" y="126" width="18" height="18" rx="3" fill="#151b23"><title>2026-05-26: No activity</title></rect>
  <rect class="day" data-date="2026-05-27" x="259" y="149" width="18" height="18" rx="3" fill="#196c2e"><title>2026-05-27: Moderate activity</title></rect>
  <rect class="day" data-date="2026-05-28" x="259" y="172" width="18" height="18" rx="3" fill="#56d364"><title>2026-05-28: Very high activity</title></rect>
  <rect class="day" data-date="2026-05-29" x="259" y="195" width="18" height="18" rx="3" fill="#033a16"><title>2026-05-29: Low activity</title></rect>
  <rect class="day" data-date="2026-05-30" x="259" y="218" width="18" height="18" rx="3" fill="#151b23"><title>2026-05-30: No activity</title></rect>
  <rect class="day" data-date="2026-05-31" x="282" y="80" width="18" height="18" rx="3" fill="#151b23"><title>2026-05-31: No activity</title></rect>
  <rect class="day" data-date="2026-06-01" x="282" y="103" width="18" height="18" rx="3" fill="#196c2e"><title>2026-06-01: Moderate activity</title></rect>
  <rect class="day" data-date="2026-06-02" x="282" y="126" width="18" height="18" rx="3" fill="#196c2e"><title>2026-06-02: Moderate activity</title></rect>
  <rect class="day" data-date="2026-06-03" x="282" y="149" width="18" height="18" rx="3" fill="#151b23"><title>2026-06-03: No activity</title></rect>
  <rect class="day" data-date="2026-06-04" x="282" y="172" width="18" height="18" rx="3" fill="#196c2e"><title>2026-06-04: Moderate activity</title></rect>
  <rect class="day" data-date="2026-06-05" x="282" y="195" width="18" height="18" rx="3" fill="#033a16"><title>2026-06-05: Low activity</title></rect>
  <rect class="day" data-date="2026-06-06" x="282" y="218" width="18" height="18" rx="3" fill="#56d364"><title>2026-06-06: Very high activity</title></rect>
  <rect class="day" data-date="2026-06-07" x="305" y="80" width="18" height="18" rx="3" fill="#151b23"><title>2026-06-07: No activity</title></rect>
  <rect class="day" data-date="2026-06-08" x="305" y="103" width="18" height="18" rx="3" fill="#56d364"><title>2026-06-08: Very high activity</title></rect>
  <rect class="day" data-date="2026-06-09" x="305" y="126" width="18" height="18" rx="3" fill="#2ea043"><title>2026-06-09: High activity</title></rect>
  <rect class="day" data-date="2026-06-10" x="305" y="149" width="18" height="18" rx="3" fill="#151b23"><title>2026-06-10: No activity</title></rect>
  <rect class="day" data-date="2026-06-11" x="305" y="172" width="18" height="18" rx="3" fill="#2ea043"><title>2026-06-11: High activity</title></rect>
  <rect class="day" data-date="2026-06-12" x="305" y="195" width="18" height="18" rx="3" fill="#151b23"><title>2026-06-12: No activity</title></rect>
  <rect class="day" data-date="2026-06-13" x="305" y="218" width="18" height="18" rx="3" fill="#151b23"><title>2026-06-13: No activity</title></rect>
  <rect class="day" data-date="2026-06-14" x="328" y="80" width="18" height="18" rx="3" fill="#151b23"><title>2026-06-14: No activity</title></rect>
  <rect class="day" data-date="2026-06-15" x="328" y="103" width="18" height="18" rx="3" fill="#033a16"><title>2026-06-15: Low activity</title></rect>
  <rect class="day" data-date="2026-06-16" x="328" y="126" width="18" height="18" rx="3" fill="#151b23"><title>2026-06-16: No activity</title></rect>
  <rect class="day" data-date="2026-06-17" x="328" y="149" width="18" height="18" rx="3" fill="#151b23"><title>2026-06-17: No activity</title></rect>
  <rect class="day" data-date="2026-06-18" x="328" y="172" width="18" height="18" rx="3" fill="#151b23"><title>2026-06-18: No activity</title></rect>
  <rect class="day" data-date="2026-06-19" x="328" y="195" width="18" height="18" rx="3" fill="#151b23"><title>2026-06-19: No activity</title></rect>
  <rect class="day" data-date="2026-06-20" x="328" y="218" width="18" height="18" rx="3" fill="#151b23"><title>2026-06-20: No activity</title></rect>
  <rect class="day" data-date="2026-06-21" x="351" y="80" width="18" height="18" rx="3" fill="#151b23"><title>2026-06-21: No activity</title></rect>
  <rect class="day" data-date="2026-06-22" x="351" y="103" width="18" height="18" rx="3" fill="#2ea043"><title>2026-06-22: High activity</title></rect>
  <rect class="day" data-date="2026-06-23" x="351" y="126" width="18" height="18" rx="3" fill="#196c2e"><title>2026-06-23: Moderate activity</title></rect>
  <rect class="day" data-date="2026-06-24" x="351" y="149" width="18" height="18" rx="3" fill="#151b23"><title>2026-06-24: No activity</title></rect>
  <rect class="day" data-date="2026-06-25" x="351" y="172" width="18" height="18" rx="3" fill="#151b23"><title>2026-06-25: No activity</title></rect>
  <rect class="day" data-date="2026-06-26" x="351" y="195" width="18" height="18" rx="3" fill="#2ea043"><title>2026-06-26: High activity</title></rect>
  <rect class="day" data-date="2026-06-27" x="351" y="218" width="18" height="18" rx="3" fill="#151b23"><title>2026-06-27: No activity</title></rect>
  <rect class="day" data-date="2026-06-28" x="374" y="80" width="18" height="18" rx="3" fill="#151b23"><title>2026-06-28: No activity</title></rect>
  <rect class="day" data-date="2026-06-29" x="374" y="103" width="18" height="18" rx="3" fill="#151b23"><title>2026-06-29: No activity</title></rect>
  <rect class="day" data-date="2026-06-30" x="374" y="126" width="18" height="18" rx="3" fill="#033a16"><title>2026-06-30: Low activity</title></rect>
  <rect class="day" data-date="2026-07-01" x="374" y="149" width="18" height="18" rx="3" fill="#196c2e"><title>2026-07-01: Moderate activity</title></rect>
  <rect class="day" data-date="2026-07-02" x="374" y="172" width="18" height="18" rx="3" fill="#2ea043"><title>2026-07-02: High activity</title></rect>
  <rect class="day" data-date="2026-07-03" x="374" y="195" width="18" height="18" rx="3" fill="#151b23"><title>2026-07-03: No activity</title></rect>
  <rect class="day" data-date="2026-07-04" x="374" y="218" width="18" height="18" rx="3" fill="#151b23"><title>2026-07-04: No activity</title></rect>
  <rect class="day" data-date="2026-07-05" x="397" y="80" width="18" height="18" rx="3" fill="#151b23"><title>2026-07-05: No activity</title></rect>
  <rect class="day" data-date="2026-07-06" x="397" y="103" width="18" height="18" rx="3" fill="#2ea043"><title>2026-07-06: High activity</title></rect>
  <rect class="day" data-date="2026-07-07" x="397" y="126" width="18" height="18" rx="3" fill="#196c2e"><title>2026-07-07: Moderate activity</title></rect>
  <rect class="day" data-date="2026-07-08" x="397" y="149" width="18" height="18" rx="3" fill="#151b23"><title>2026-07-08: No activity</title></rect>
  <rect class="day" data-date="2026-07-09" x="397" y="172" width="18" height="18" rx="3" fill="#151b23"><title>2026-07-09: No activity</title></rect>
  <rect class="day" data-date="2026-07-10" x="397" y="195" width="18" height="18" rx="3" fill="#2ea043"><title>2026-07-10: High activity</title></rect>
  <rect class="day" data-date="2026-07-11" x="397" y="218" width="18" height="18" rx="3" fill="#151b23"><title>2026-07-11: No activity</title></rect>
  <rect class="day" data-date="2026-07-12" x="420" y="80" width="18" height="18" rx="3" fill="#196c2e"><title>2026-07-12: Moderate activity</title></rect>
  <rect class="day" data-date="2026-07-13" x="420" y="103" width="18" height="18" rx="3" fill="#2ea043"><title>2026-07-13: High activity</title></rect>
  <rect class="day" data-date="2026-07-14" x="420" y="126" width="18" height="18" rx="3" fill="#151b23"><title>2026-07-14: No activity</title></rect>
  <rect class="day" data-date="2026-07-15" x="420" y="149" width="18" height="18" rx="3" fill="#56d364"><title>2026-07-15: Very high activity</title></rect>
  <rect class="day" data-date="2026-07-16" x="420" y="172" width="18" height="18" rx="3" fill="#56d364"><title>2026-07-16: Very high activity</title></rect>
  <rect class="day" data-date="2026-07-17" x="420" y="195" width="18" height="18" rx="3" fill="#2ea043"><title>2026-07-17: High activity</title></rect>
  <rect class="day" data-date="2026-07-18" x="420" y="218" width="18" height="18" rx="3" fill="#151b23"><title>2026-07-18: No activity</title></rect>
  <rect class="day" data-date="2026-07-19" x="443" y="80" width="18" height="18" rx="3" fill="#2ea043"><title>2026-07-19: High activity</title></rect>
  <rect class="day" data-date="2026-07-20" x="443" y="103" width="18" height="18" rx="3" fill="#033a16"><title>2026-07-20: Low activity</title></rect>
  <rect class="day" data-date="2026-07-21" x="443" y="126" width="18" height="18" rx="3" fill="#56d364"><title>2026-07-21: Very high activity</title></rect>
  <rect class="day" data-date="2026-07-22" x="443" y="149" width="18" height="18" rx="3" fill="#196c2e"><title>2026-07-22: Moderate activity</title></rect>
  <rect class="day" data-date="2026-07-23" x="443" y="172" width="18" height="18" rx="3" fill="#151b23"><title>2026-07-23: No activity</title></rect>
  <rect class="day" data-date="2026-07-24" x="443" y="195" width="18" height="18" rx="3" fill="#151b23"><title>2026-07-24: No activity</title></rect>
  <rect class="day" data-date="2026-07-25" x="443" y="218" width="18" height="18" rx="3" fill="#151b23"><title>2026-07-25: No activity</title></rect>
  <rect class="day" data-date="2026-07-26" x="466" y="80" width="18" height="18" rx="3" fill="#033a16"><title>2026-07-26: Low activity</title></rect>
  <rect class="day" data-date="2026-07-27" x="466" y="103" width="18" height="18" rx="3" fill="#56d364"><title>2026-07-27: Very high activity</title></rect>
  <rect class="day" data-date="2026-07-28" x="466" y="126" width="18" height="18" rx="3" fill="#151b23"><title>2026-07-28: No activity</title></rect>
  <rect class="day" data-date="2026-07-29" x="466" y="149" width="18" height="18" rx="3" fill="#033a16"><title>2026-07-29: Low activity</title></rect>
  <rect class="day" data-date="2026-07-30" x="466" y="172" width="18" height="18" rx="3" fill="#56d364"><title>2026-07-30: Very high activity</title></rect>
  <rect class="day" data-date="2026-07-31" x="466" y="195" width="18" height="18" rx="3" fill="#56d364"><title>2026-07-31: Very high activity</title></rect>
  <rect class="day" data-date="2026-08-01" x="466" y="218" width="18" height="18" rx="3" fill="#151b23"><title>2026-08-01: No activity</title></rect>
  <rect class="day" data-date="2026-08-02" x="489" y="80" width="18" height="18" rx="3" fill="#56d364"><title>2026-08-02: Very high activity</title></rect>
  <rect class="day" data-date="2026-08-03" x="489" y="103" width="18" height="18" rx="3" fill="#151b23"><title>2026-08-03: No activity</title></rect>
  <rect class="day" data-date="2026-08-04" x="489" y="126" width="18" height="18" rx="3" fill="#151b23"><title>2026-08-04: No activity</title></rect>
  <rect class="day" data-date="2026-08-05" x="489" y="149" width="18" height="18" rx="3" fill="#151b23"><title>2026-08-05: No activity</title></rect>
  <rect class="day" data-date="2026-08-06" x="489" y="172" width="18" height="18" rx="3" fill="#151b23"><title>2026-08-06: No activity</title></rect>
  <rect class="day" data-date="2026-08-07" x="489" y="195" width="18" height="18" rx="3" fill="#151b23"><title>2026-08-07: No activity</title></rect>
  <rect class="day" data-date="2026-08-08" x="489" y="218" width="18" height="18" rx="3" fill="#151b23"><title>2026-08-08: No activity</title></rect>
  <rect class="day" data-date="2026-08-09" x="512" y="80" width="18" height="18" rx="3" fill="#151b23"><title>2026-08-09: No activity</title></rect>
  <rect class="day" data-date="2026-08-10" x="512" y="103" width="18" height="18" rx="3" fill="#151b23"><title>2026-08-10: No activity</title></rect>
  <rect class="day" data-date="2026-08-11" x="512" y="126" width="18" height="18" rx="3" fill="#151b23"><title>2026-08-11: No activity</title></rect>
  <rect class="day" data-date="2026-08-12" x="512" y="149" width="18" height="18" rx="3" fill="#151b23"><title>2026-08-12: No activity</title></rect>
  <rect class="day" data-date="2026-08-13" x="512" y="172" width="18" height="18" rx="3" fill="#151b23"><title>2026-08-13: No activity</title></rect>
  <rect class="day" data-date="2026-08-14" x="512" y="195" width="18" height="18" rx="3" fill="#151b23"><title>2026-08-14: No activity</title></rect>
  <rect class="day" data-date="2026-08-15" x="512" y="218" width="18" height="18" rx="3" fill="#151b23"><title>2026-08-15: No activity</title></rect>
  <rect class="day" data-date="2026-08-16" x="535" y="80" width="18" height="18" rx="3" fill="#151b23"><title>2026-08-16: No activity</title></rect>
  <rect class="day" data-date="2026-08-17" x="535" y="103" width="18" height="18" rx="3" fill="#196c2e"><title>2026-08-17: Moderate activity</title></rect>
  <rect class="day" data-date="2026-08-18" x="535" y="126" width="18" height="18" rx="3" fill="#151b23"><title>2026-08-18: No activity</title></rect>
  <rect class="day" data-date="2026-08-19" x="535" y="149" width="18" height="18" rx="3" fill="#151b23"><title>2026-08-19: No activity</title></rect>
  <rect class="day" data-date="2026-08-20" x="535" y="172" width="18" height="18" rx="3" fill="#151b23"><title>2026-08-20: No activity</title></rect>
  <rect class="day" data-date="2026-08-21" x="535" y="195" width="18" height="18" rx="3" fill="#151b23"><title>2026-08-21: No activity</title></rect>
  <rect class="day" data-date="2026-08-22" x="535" y="218" width="18" height="18" rx="3" fill="#151b23"><title>2026-08-22: No activity</title></rect>
  <rect class="day" data-date="2026-08-23" x="558" y="80" width="18" height="18" rx="3" fill="#151b23"><title>2026-08-23: No activity</title></rect>
  <rect class="day" data-date="2026-08-24" x="558" y="103" width="18" height="18" rx="3" fill="#151b23"><title>2026-08-24: No activity</title></rect>
  <rect class="day" data-date="2026-08-25" x="558" y="126" width="18" height="18" rx="3" fill="#151b23"><title>2026-08-25: No activity</title></rect>
  <rect class="day" data-date="2026-08-26" x="558" y="149" width="18" height="18" rx="3" fill="#151b23"><title>2026-08-26: No activity</title></rect>
  <rect class="day" data-date="2026-08-27" x="558" y="172" width="18" height="18" rx="3" fill="#196c2e"><title>2026-08-27: Moderate activity</title></rect>
  <rect class="day" data-date="2026-08-28" x="558" y="195" width="18" height="18" rx="3" fill="#151b23"><title>2026-08-28: No activity</title></rect>
  <rect class="day" data-date="2026-08-29" x="558" y="218" width="18" height="18" rx="3" fill="#151b23"><title>2026-08-29: No activity</title></rect>
  <rect class="day" data-date="2026-08-30" x="581" y="80" width="18" height="18" rx="3" fill="#151b23"><title>2026-08-30: No activity</title></rect>
  <rect class="day" data-date="2026-08-31" x="581" y="103" width="18" height="18" rx="3" fill="#2ea043"><title>2026-08-31: High activity</title></rect>
  <rect class="day" data-date="2026-09-01" x="581" y="126" width="18" height="18" rx="3" fill="#151b23"><title>2026-09-01: No activity</title></rect>
  <rect class="day" data-date="2026-09-02" x="581" y="149" width="18" height="18" rx="3" fill="#151b23"><title>2026-09-02: No activity</title></rect>
  <rect class="day" data-date="2026-09-03" x="581" y="172" width="18" height="18" rx="3" fill="#151b23"><title>2026-09-03: No activity</title></rect>
  <rect class="day" data-date="2026-09-04" x="581" y="195" width="18" height="18" rx="3" fill="#151b23"><title>2026-09-04: No activity</title></rect>
  <rect class="day" data-date="2026-09-05" x="581" y="218" width="18" height="18" rx="3" fill="#151b23"><title>2026-09-05: No activity</title></rect>
  <rect class="day" data-date="2026-09-06" x="604" y="80" width="18" height="18" rx="3" fill="#151b23"><title>2026-09-06: No activity</title></rect>
  <rect class="day" data-date="2026-09-07" x="604" y="103" width="18" height="18" rx="3" fill="#56d364"><title>2026-09-07: Very high activity</title></rect>
  <rect class="day" data-date="2026-09-08" x="604" y="126" width="18" height="18" rx="3" fill="#033a16"><title>2026-09-08: Low activity</title></rect>
  <rect class="day" data-date="2026-09-09" x="604" y="149" width="18" height="18" rx="3" fill="#151b23"><title>2026-09-09: No activity</title></rect>
  <rect class="day" data-date="2026-09-10" x="604" y="172" width="18" height="18" rx="3" fill="#151b23"><title>2026-09-10: No activity</title></rect>
  <rect class="day" data-date="2026-09-11" x="604" y="195" width="18" height="18" rx="3" fill="#151b23"><title>2026-09-11: No activity</title></rect>
  <rect class="day" data-date="2026-09-12" x="604" y="218" width="18" height="18" rx="3" fill="#151b23"><title>2026-09-12: No activity</title></rect>
  <rect class="day" data-date="2026-09-13" x="627" y="80" width="18" height="18" rx="3" fill="#151b23"><title>2026-09-13: No activity</title></rect>
  <rect class="day" data-date="2026-09-14" x="627" y="103" width="18" height="18" rx="3" fill="#151b23"><title>2026-09-14: No activity</title></rect>
  <rect class="day" data-date="2026-09-15" x="627" y="126" width="18" height="18" rx="3" fill="#151b23"><title>2026-09-15: No activity</title></rect>
  <rect class="day" data-date="2026-09-16" x="627" y="149" width="18" height="18" rx="3" fill="#151b23"><title>2026-09-16: No activity</title></rect>
  <rect class="day" data-date="2026-09-17" x="627" y="172" width="18" height="18" rx="3" fill="#151b23"><title>2026-09-17: No activity</title></rect>
  <rect class="day" data-date="2026-09-18" x="627" y="195" width="18" height="18" rx="3" fill="#151b23"><title>2026-09-18: No activity</title></rect>
  <rect class="day" data-date="2026-09-19" x="627" y="218" width="18" height="18" rx="3" fill="#151b23"><title>2026-09-19: No activity</title></rect>
  <rect class="day" data-date="2026-09-20" x="650" y="80" width="18" height="18" rx="3" fill="#151b23"><title>2026-09-20: No activity</title></rect>
  <rect class="day" data-date="2026-09-21" x="650" y="103" width="18" height="18" rx="3" fill="#151b23"><title>2026-09-21: No activity</title></rect>
  <text x="24" y="262" class="footer">Mar 22, 2026 - Sep 21, 2026 / JST</text>
  <text x="539" y="262" text-anchor="end" class="footer">Less</text>
  <rect x="549" y="251" width="13" height="13" rx="2" class="day" fill="#151b23"/>
  <rect x="566" y="251" width="13" height="13" rx="2" class="day" fill="#033a16"/>
  <rect x="583" y="251" width="13" height="13" rx="2" class="day" fill="#196c2e"/>
  <rect x="600" y="251" width="13" height="13" rx="2" class="day" fill="#2ea043"/>
  <rect x="617" y="251" width="13" height="13" rx="2" class="day" fill="#56d364"/>
  <text x="668" y="262" text-anchor="end" class="footer">More</text>
</svg>